<svg width="128" height="119" viewBox="0 0 128 119" fill="none" xmlns="http://www.w3.org/2000/svg">
<path d="M68.2177 118.885C65.4926 118.821 64.4977 118.747 64.1337 118.581C63.6354 118.353 62.6401 117.186 62.3683 116.51C62.2629 116.248 62.2095 114.783 62.2024 111.957L62.1926 107.79L60.4683 107.304C58.1877 106.661 55.8086 105.74 54.3908 104.951L53.2401 104.31L51.2094 106.751C49.1091 109.276 47.9135 110.441 47.0825 110.773C46.1953 111.127 45.8905 111.04 44.8121 110.121C41.0843 106.944 37.3133 102.908 34.2433 98.807C32.6082 96.6232 30.6549 93.6177 30.7799 93.4783C30.9103 93.3325 50.1458 93.1315 67.0923 93.0985L78.2419 93.0766L79.569 92.7162C92.2456 89.274 101.678 77.9647 103.584 63.9235C103.882 61.7277 103.885 57.3248 103.589 55.1988C102.937 50.4999 101.612 46.4535 99.4425 42.533C95.505 35.4184 88.6662 29.8649 81.1618 27.6872L79.9608 27.3386L60.2781 27.2476C36.7428 27.1387 30.3871 27.0449 30.3871 26.8069C30.3881 26.5447 32.9591 22.7793 34.58 20.6664C37.2898 17.134 41.1527 13.0561 44.3027 10.4024C45.4796 9.41097 45.5356 9.38215 46.1143 9.47081C46.4427 9.52112 46.9865 9.74233 47.3227 9.96226C47.948 10.3714 50.2397 12.8448 52.0245 15.0373L53.0223 16.2629L53.5219 15.8834C54.3144 15.2815 57.835 13.3564 59.0446 12.8636C59.651 12.6164 60.6117 12.3035 61.1797 12.1681C61.7477 12.0327 62.3057 11.8936 62.4198 11.8592C62.5961 11.8062 62.6196 11.5345 62.5768 10.045C62.522 8.14082 62.8462 2.95579 63.0743 2.08635C63.2852 1.28247 63.7522 0.599294 64.3108 0.277163C64.7321 0.0341022 65.0812 -0.00791372 66.601 0.00110879C67.5873 0.00657698 68.9548 0.0795512 69.64 0.162394C71.3214 0.365811 77.5591 0.609208 81.1319 0.61104C84.2541 0.612626 84.5469 0.669024 85.4542 1.4425C85.6949 1.64783 86.0566 2.12947 86.2576 2.51292L86.6232 3.21013L86.5691 6.05002C86.5395 7.61196 86.5114 9.58442 86.5068 10.4334L86.497 11.9768L87.698 12.3188C90.2487 13.0452 93.7858 14.6234 95.618 15.8529C96.0842 16.1657 96.4746 16.4216 96.4854 16.4216C96.4976 16.4216 97.3158 15.5426 98.3065 14.4683C101.132 11.4048 101.979 10.634 102.821 10.3606C104.225 9.90473 105.119 10.2671 106.79 11.969C107.382 12.5724 108.373 13.5473 108.992 14.1354C109.61 14.7236 111.137 16.3608 112.385 17.7737C113.632 19.1866 115.525 21.3228 116.591 22.5209C118.937 25.1572 119.322 25.8426 119.322 27.3838C119.322 29.1396 118.975 29.7222 115.933 33.0592C113.651 35.5636 113.353 35.9442 113.427 36.2657C113.473 36.4664 113.848 37.2892 114.26 38.0941C115.137 39.8054 115.923 41.8529 116.71 44.4752L117.274 46.3539L119.766 46.454C126.371 46.7189 126.901 46.877 127.543 48.7732C128.067 50.3211 128.112 53.2927 127.823 67.1572C127.72 72.0712 127.734 71.9971 126.744 72.7506C126.166 73.1904 125.576 73.2446 120.928 73.285L116.928 73.3197L116.83 73.6926C115.995 76.8715 114.904 80.1045 113.744 82.8427L112.931 84.7595L113.792 85.6682C116.312 88.3275 118.632 90.9573 118.988 91.5579C119.495 92.4141 119.56 93.3246 119.174 94.159C118.994 94.5498 107.341 107.569 105.729 109.181C104.549 110.361 103.671 110.648 102.672 110.181C101.92 109.828 100.173 108.174 97.8908 105.651L95.6738 103.2L94.1544 104.098C92.409 105.128 89.1322 106.62 87.3119 107.213L86.0649 107.619L86.0796 112.095C86.0942 116.095 86.0698 116.646 85.8521 117.275C85.5708 118.09 85.0292 118.657 84.3229 118.876C83.8036 119.038 74.9349 119.042 68.214 118.885L68.2177 118.885ZM23.8082 87.7871C22.6324 87.4259 21.7645 86.8413 20.9379 85.8536C19.8944 84.6069 19.5338 83.6097 19.5338 81.9707C19.5338 80.3393 19.8954 79.3333 20.9232 78.1052C23.2967 75.2694 27.3525 75.2027 29.8184 77.959L30.5388 78.7642H31.6686C32.5094 78.7642 32.8165 78.7111 32.8694 78.5572C32.9086 78.4432 32.5966 77.5876 32.1763 76.6557C31.7559 75.7237 31.1253 74.2229 30.7748 73.3206L30.1376 71.68L21.9144 71.6204L21.5107 72.2433C20.6642 73.5493 19.1655 74.4793 17.4673 74.7526C14.9951 75.1503 12.2741 73.6046 11.219 71.2026C10.8745 70.4184 10.8389 70.191 10.8389 68.7714C10.8389 67.3014 10.8648 67.1499 11.2632 66.2985C11.9945 64.7351 13.4706 63.42 15.0067 62.9634C15.9668 62.678 17.6932 62.7455 18.6499 63.1056C19.5988 63.4628 20.7497 64.2597 21.2209 64.8857L21.5325 65.2996L32.5234 65.4412L33.1214 66.1192C34.0599 67.1831 34.759 67.4973 36.1929 67.4996C37.5565 67.5012 38.1883 67.2325 39.1069 66.2574C39.5802 65.7549 40.263 64.512 40.263 64.1529C40.263 64.0681 40.0377 64.0014 39.7626 64.0044C39.3485 64.0099 39.2161 64.0917 38.9953 64.4828C38.8485 64.7428 38.468 65.1596 38.1498 65.4092C37.6356 65.8124 37.4646 65.863 36.6152 65.863C35.8088 65.863 35.5599 65.7979 35.0246 65.4461C32.908 64.0554 33.2231 60.5591 35.5578 59.5308C35.8152 59.4173 36.3358 59.3649 36.8447 59.4012C37.8011 59.4693 38.6235 59.974 39.0294 60.7421C39.2031 61.0709 39.3511 61.1651 39.6939 61.1651H40.1349L39.8766 60.6058C39.5459 59.8896 38.7598 59.0557 37.9945 58.6092C37.4945 58.3176 37.1928 58.2587 36.193 58.2578C34.7929 58.2566 34.0852 58.5597 33.2137 59.5338L32.6882 60.1211H10.6131L10.0138 60.7106C8.53956 62.161 6.31358 62.7143 4.30494 62.1296C2.04229 61.4709 0.362298 59.4304 0.0389013 56.9477C-0.254651 54.6951 1.14265 52.0946 3.23421 51.0005C5.77295 49.6727 8.5556 50.2469 10.4943 52.4985L11.3726 53.5186L33.5241 53.7307L34.0578 54.2892C34.7788 55.0436 35.1506 55.2828 36.0626 55.5791C38.9999 56.5334 42.0286 53.4556 41.4584 50.0959C40.8623 46.5828 37.3932 44.8669 34.7612 46.783C34.3143 47.1083 34.1207 47.1452 32.8597 47.1452H31.4557V46.6575C31.4557 45.9205 31.9356 44.1272 32.6158 42.3226C33.133 40.9505 33.1972 40.6759 33.0409 40.503C32.8936 40.34 31.9564 40.2941 28.3487 40.2736L23.8405 40.249L23.2781 40.8713C22.0577 42.2219 20.3925 42.8937 18.5142 42.7933C17.4877 42.7383 17.206 42.6593 16.3434 42.1827C15.0694 41.479 14.0651 40.3819 13.5216 39.1C13.1469 38.2162 13.1078 37.9877 13.1121 36.7061C13.117 35.4702 13.164 35.1808 13.4851 34.4403C14.476 32.1557 16.5742 30.7441 18.9787 30.7441C20.7819 30.7441 22.2628 31.4521 23.5368 32.9235L24.3586 33.8725L36.0136 33.8943C42.4238 33.908 50.8214 33.9564 54.6742 34.0062L61.6799 34.0964V48.265L55.8083 48.3397L49.9368 48.414L49.0797 49.0709C47.7677 50.0765 46.1985 51.8389 45.3445 53.2661C44.0569 55.4176 43.328 58.2717 43.5294 60.3732L43.6196 61.3149H44.9869C46.2328 61.3149 46.379 61.3447 46.6344 61.6505C47.0194 62.1115 47.1317 62.7214 46.9312 63.2623C46.7011 63.8837 46.4406 63.9995 45.2732 63.9995H44.2618L44.6797 64.9316C45.5932 66.9684 47.6055 69.4314 49.584 70.9346L50.5657 71.6802L56.1087 71.7546L61.6517 71.8293L61.6845 72.4258C61.7016 72.754 61.6845 75.8246 61.6444 79.2499L61.5717 85.4773L46.0146 85.4142L30.4576 85.3507L29.7778 86.0693C28.2258 87.7098 25.8144 88.4035 23.8082 87.7871ZM25.9885 83.7979C26.4646 83.5291 26.6344 83.3214 26.8421 82.7538C27.0989 82.0522 27.0988 82.0387 26.8416 81.345C26.6325 80.7809 26.4597 80.5742 25.9541 80.2834C25.1975 79.8483 24.6046 79.9176 23.9686 80.5159C22.8967 81.5239 23.0255 83.1213 24.2363 83.8367C24.8713 84.2118 25.2714 84.2027 25.9885 83.7979ZM17.221 70.6564C17.9505 70.3158 18.3781 69.6142 18.3781 68.7582C18.3781 68.135 18.3113 67.9406 17.9444 67.4941C17.1762 66.5594 15.9175 66.5418 15.1542 67.4552C14.3033 68.4734 14.6118 70.0868 15.7648 70.6478C16.2959 70.9062 16.6811 70.9091 17.221 70.6564ZM37.3653 63.6992C37.9952 63.1455 37.9559 62.1929 37.2777 61.5791C36.3225 60.7143 34.8239 62.0264 35.3841 63.2371C35.4984 63.4843 35.697 63.7547 35.8255 63.8383C36.2174 64.0934 36.9971 64.0232 37.3653 63.6992ZM7.18566 57.6441C7.95039 56.8252 7.96668 55.6531 7.22482 54.8238C6.44336 53.9504 5.35806 53.9538 4.57232 54.832C3.99891 55.4729 3.87437 56.1272 4.16907 56.9505C4.6516 58.2983 6.2346 58.6624 7.18566 57.6441ZM19.9405 38.8004C21.1504 37.9759 21.0114 36.0455 19.6867 35.2753C18.6166 34.653 17.2197 35.522 17.081 36.8961C16.9547 38.1483 17.7417 39.0915 18.9128 39.0915C19.2735 39.0915 19.6839 38.9754 19.9405 38.8004ZM68.6531 85.3675C67.43 85.3319 66.9507 85.2669 66.948 85.1359C66.9466 85.0358 66.9476 80.6082 66.9529 75.297L66.9602 65.6399L65.3219 65.629C64.4209 65.6235 60.7249 65.5688 57.1086 65.5087L50.5335 65.3996L49.8294 64.6224C47.2491 61.7743 47.2119 57.7883 49.7389 54.8934C50.571 53.9401 51.2393 53.4953 51.656 53.6174C51.8126 53.6633 62.3291 53.9113 75.0262 54.1688C87.7233 54.4263 98.1544 54.6807 98.207 54.7343C98.3846 54.9155 98.7182 57.0359 98.8476 58.8051C99.0332 61.3461 98.6702 65.6072 98.2266 66.0903C98.1634 66.1592 95.5596 66.1579 92.4404 66.0876C87.3182 65.9722 79.675 65.8825 78.3956 65.9227L77.8952 65.9391V71.7403L86.9582 71.7852C91.9429 71.8098 96.0627 71.8765 96.1133 71.9331C96.2486 72.0843 95.4782 73.5188 94.3369 75.2408C92.3939 78.172 88.6853 81.868 85.8351 83.7137C85.248 84.094 84.1671 84.6294 83.4332 84.9036L82.0987 85.4022L76.2272 85.4104C72.9979 85.4159 69.5891 85.3956 68.6531 85.3675ZM36.1299 53.6985C35.2219 53.272 34.5489 52.3417 34.3307 51.2118C34.2005 50.5384 34.5753 49.2 35.07 48.5701C35.4582 48.0759 36.6394 47.4435 37.1743 47.4435C37.7479 47.4435 38.8092 47.9299 39.208 48.3757C40.17 49.4509 40.3644 50.7492 39.7622 52.0766C39.2309 53.2477 38.5193 53.761 37.3545 53.8132C36.8623 53.8351 36.3112 53.7835 36.1299 53.6985ZM38.0044 51.631C38.7953 50.747 38.2722 49.3823 37.1425 49.3823C36.4837 49.3823 35.8591 50.0356 35.8591 50.7246C35.8591 51.405 36.4842 52.0669 37.1268 52.0669C37.4877 52.0669 37.7156 51.9537 38.0044 51.631ZM75.5571 48.3383L67.1502 48.2639L67.1082 44.6098C67.0837 42.6001 67.1067 39.3953 67.1563 37.4883L67.2469 34.0206H72.4932C79.3567 34.0206 80.5962 34.217 83.2966 35.731C88.1392 38.4462 92.1739 42.2636 94.9521 46.7587C95.4038 47.4895 95.7733 48.186 95.7733 48.3064C95.7733 48.4965 94.9949 48.5181 89.8685 48.4691C86.6209 48.4382 80.1808 48.3793 75.5571 48.3383Z" fill="url(#paint0_linear_22_33)"/>
<defs>
<linearGradient id="paint0_linear_22_33" x1="-0.00872765" y1="59.5002" x2="128.005" y2="59.5002" gradientUnits="userSpaceOnUse">
<stop stop-color="#DC01DE"/>
<stop offset="1" stop-color="#2B05E7"/>
</linearGradient>
</defs>
</svg>
